<?xml version="1.0" encoding="utf-8"?>
<!-- Generator: Adobe Illustrator 21.0.0, SVG Export Plug-In . SVG Version: 6.00 Build 0)  -->
<svg version="1.1" id="Layer_1" xmlns="http://www.w3.org/2000/svg" xmlns:xlink="http://www.w3.org/1999/xlink" x="0px" y="0px"
	 viewBox="0 0 256 256" style="enable-background:new 0 0 256 256;" xml:space="preserve">
<style type="text/css">
	.st0{fill:#E9E9EA;}
	.st1{fill:#EA4647;}
	.st2{fill:#FC7783;}
	.st3{fill:#55ACD5;}
	.st4{fill:#F9D0B4;}
	.st5{fill:#231F20;}
	.st6{fill:#6DCC6D;}
	.st7{fill:#FFCD29;}
</style>
<g id="Layer_7">
	<path class="st0" d="M138.7,19.4H27.2c-4.5,0-8.2,3.7-8.2,8.2l0,0v210.9c0,4.5,3.7,8.2,8.2,8.2h74.4v-71.5c0-1.4,1.1-2.5,2.5-2.5
		c0,0,0,0,0,0h30c1.4,0,2.5,1.1,2.5,2.5l0,0v2.4h10.3v-150C146.9,23.1,143.2,19.4,138.7,19.4L138.7,19.4z"/>
	<path class="st1" d="M39.2,54.5h87.6c2,0,3.6,1.6,3.6,3.6v52.3c0,2-1.6,3.6-3.6,3.6H39.2c-2,0-3.6-1.6-3.6-3.6V58.1
		C35.6,56.1,37.2,54.5,39.2,54.5z"/>
	<path class="st0" d="M93.4,80.2l-17.9-9c-0.7-0.3-1.5-0.1-1.9,0.6c-0.1,0.2-0.1,0.4-0.1,0.6v17.9c0,0.8,0.6,1.4,1.4,1.4
		c0.2,0,0.4-0.1,0.6-0.1l17.9-9c0.7-0.3,1-1.2,0.6-1.9C93.8,80.5,93.6,80.3,93.4,80.2z"/>
	<path class="st2" d="M35.6,104.3v6.2c0,2,1.6,3.6,3.6,3.6h0h87.6c2,0,3.6-1.6,3.6-3.6l0,0v-6.2H35.6z"/>
	<path class="st0" d="M104.1,172.8h30c1.4,0,2.5,1.1,2.5,2.5V251c0,1.4-1.1,2.5-2.5,2.5h-30c-1.4,0-2.5-1.1-2.5-2.5v-75.7
		C101.7,173.9,102.8,172.8,104.1,172.8z"/>
	<path class="st0" d="M148.1,177.7h-11.5v69.8h11.5c1.4,0,2.5-1.1,2.5-2.5l0,0v-64.8C150.6,178.8,149.5,177.7,148.1,177.7
		L148.1,177.7z"/>
	<path class="st3" d="M104.1,172.8h30c1.4,0,2.5,1.1,2.5,2.5V251c0,1.4-1.1,2.5-2.5,2.5h-30c-1.4,0-2.5-1.1-2.5-2.5v-75.7
		C101.7,173.9,102.8,172.8,104.1,172.8z"/>
	<path class="st0" d="M148.1,177.7h-11.5v69.8h11.5c1.4,0,2.5-1.1,2.5-2.5l0,0v-64.8C150.6,178.8,149.5,177.7,148.1,177.7
		L148.1,177.7z"/>
	<path class="st4" d="M237,207.1c0-4.5-3.6-8.1-8.1-8.1c4.5,0,8.1-3.5,8.2-8c0-4.5-3.5-8.1-8-8.2c-0.1,0-0.1,0-0.2,0H205
		c3.9-11.6,9.7-21.5,8.1-29.5c-1.8-9.1-13.2-12.2-14.9-3.6c-1.7,8.5-14.5,24.6-14.5,24.6c-4,4-3.8,8.7-33.2,8.7v58.7h14.8
		c4,0,7.9,0.6,11.7,1.8l6.1,2c3.4,1.1,7,1.7,10.6,1.7h35.1c4.5,0,8.1-3.5,8.2-8c0-4.5-3.5-8.1-8-8.2c-0.1,0-0.1,0-0.2,0
		c4.5,0,8-3.7,8-8.2c0-4.4-3.6-7.9-8-8C233.4,215.2,237,211.6,237,207.1z"/>
	<path class="st4" d="M237,207.1c0-4.5-3.6-8.1-8.1-8.1c4.5,0,8.1-3.5,8.2-8c0-4.5-3.5-8.1-8-8.2c-0.1,0-0.1,0-0.2,0H205
		c3.9-11.6,9.7-21.5,8.1-29.5c-1.8-9.1-13.2-12.2-14.9-3.6c-1.7,8.5-14.5,24.6-14.5,24.6c-4,4-3.8,8.7-33.2,8.7v58.7h14.8
		c4,0,7.9,0.6,11.7,1.8l6.1,2c3.4,1.1,7,1.7,10.6,1.7h35.1c4.5,0,8.1-3.5,8.2-8c0-4.5-3.5-8.1-8-8.2c-0.1,0-0.1,0-0.2,0
		c4.5,0,8-3.7,8-8.2c0-4.4-3.6-7.9-8-8C233.4,215.2,237,211.6,237,207.1z"/>
	<path class="st4" d="M228.9,182.9h-15.7c-4.5,0-8.1,3.5-8.2,8c0,4.5,3.5,8.1,8,8.2c0.1,0,0.1,0,0.2,0h15.7c4.5,0,8.1-3.5,8.2-8
		c0-4.5-3.5-8.1-8-8.2C229,182.9,229,182.9,228.9,182.9z"/>
	<path class="st4" d="M228.9,199.1h-15.7c-4.5,0-8.1,3.5-8.2,8c0,4.5,3.5,8.1,8,8.2c0.1,0,0.1,0,0.2,0h15.7c4.5,0,8.1-3.5,8.2-8
		c0-4.5-3.5-8.1-8-8.2C229,199.1,229,199.1,228.9,199.1z"/>
	<path class="st4" d="M228.9,215.2h-15.7c-4.5,0-8.1,3.5-8.2,8c0,4.5,3.5,8.1,8,8.2c0.1,0,0.1,0,0.2,0h15.7c4.5,0,8.1-3.5,8.2-8
		c0-4.5-3.5-8.1-8-8.2C229,215.2,229,215.2,228.9,215.2z"/>
	<path class="st4" d="M228.9,231.3h-15.7c-4.5,0-8.1,3.5-8.2,8c0,4.5,3.5,8.1,8,8.2c0.1,0,0.1,0,0.2,0h15.7c4.5,0,8.1-3.5,8.2-8
		c0-4.5-3.5-8.1-8-8.2C229,231.3,229,231.3,228.9,231.3z"/>
	<path class="st5" d="M134.1,170.3h-30c-2.8,0-5,2.2-5,5V251c0,2.8,2.2,5,5,5h30c2.8,0,5-2.2,5-5v-75.7
		C139.1,172.5,136.9,170.3,134.1,170.3z M104.2,251l0-75.7h30l0,75.7L104.2,251z"/>
	<path class="st5" d="M148.1,175.2h-11.5c-1.4,0-2.5,1.1-2.5,2.5v69.8c0,1.4,1.1,2.5,2.5,2.5h11.5c2.8,0,5-2.2,5-5v-64.8
		C153.1,177.4,150.9,175.2,148.1,175.2z M139.1,244.9v-64.8h9l0,64.8H139.1z"/>
	<path class="st5" d="M239.5,207.1c0-3.1-1.4-6.1-3.7-8.1c4.5-3.8,5-10.4,1.3-14.9c-2-2.4-5-3.7-8.1-3.7h-20.4
		c0.7-2,1.5-3.9,2.3-5.9c3.2-8.1,6-15.1,4.8-21.6c-1.4-6.9-7-10.7-11.7-10.7l0,0c-4.1,0-7.2,2.7-8.1,7.1
		c-1.2,6.4-10.4,18.9-13.9,23.4c-0.5,0.5-1,1.1-1.4,1.6c-2.6,3.1-5.3,6.3-29.9,6.3c-1.4,0-2.5,1.1-2.5,2.5v58.7
		c0,1.4,1.1,2.5,2.5,2.5h14.8c3.7,0,7.4,0.6,10.9,1.7l6.1,2c3.7,1.2,7.5,1.8,11.4,1.8h35.1c5.8,0,10.6-4.7,10.6-10.6
		c0-3.1-1.4-6.1-3.7-8.1c4.5-3.8,5-10.4,1.3-14.9c-0.4-0.5-0.8-0.9-1.3-1.3C238.1,213.2,239.5,210.2,239.5,207.1z M228.9,201.6
		c3.1,0,5.6,2.5,5.6,5.6c0,3.1-2.5,5.6-5.6,5.6c-1.4,0-2.5,1.1-2.5,2.5s1.1,2.5,2.5,2.5c3.1,0,5.5,2.6,5.5,5.6c0,3-2.5,5.4-5.5,5.5
		c-1.4,0-2.5,1.1-2.5,2.5s1.1,2.5,2.5,2.5c3.1,0,5.6,2.4,5.6,5.5c0,3.1-2.4,5.6-5.5,5.6c0,0-0.1,0-0.1,0h-35.1
		c-3.3,0-6.7-0.5-9.8-1.6l-6.1-2c-4-1.3-8.2-2-12.4-2h-12.3v-53.7c22.8-0.2,27.2-3.3,31.2-8.1c0.4-0.5,0.8-1,1.3-1.4
		c0.1-0.1,0.1-0.1,0.2-0.2c0.5-0.7,13.3-16.7,15-25.6c0.4-2.1,1.5-3.1,3.2-3.1l0,0c2.6,0,6,2.5,6.8,6.6c1,5-1.6,11.4-4.5,18.8
		c-1.2,3-2.4,6.1-3.6,9.4c-0.4,1.3,0.3,2.7,1.6,3.2c0.3,0.1,0.5,0.1,0.8,0.1h23.9c3.1,0,5.6,2.4,5.6,5.5c0,3.1-2.4,5.6-5.5,5.6
		c0,0-0.1,0-0.1,0c-1.4,0-2.5,1.1-2.5,2.5S227.5,201.6,228.9,201.6L228.9,201.6z"/>
	<path class="st5" d="M134.1,170.3h-30c-2.8,0-5,2.2-5,5V251c0,2.8,2.2,5,5,5h30c2.8,0,5-2.2,5-5v-75.7
		C139.1,172.5,136.9,170.3,134.1,170.3z M104.2,251l0-75.7h30l0,75.7L104.2,251z"/>
	<path class="st5" d="M148.1,175.2h-11.5c-1.4,0-2.5,1.1-2.5,2.5v69.8c0,1.4,1.1,2.5,2.5,2.5h11.5c2.8,0,5-2.2,5-5v-64.8
		C153.1,177.4,150.9,175.2,148.1,175.2z M139.1,244.9v-64.8h9l0,64.8H139.1z"/>
	<path class="st5" d="M239.5,207.1c0-3.1-1.4-6.1-3.7-8.1c4.5-3.8,5-10.4,1.3-14.9c-2-2.4-5-3.7-8.1-3.7h-20.4
		c0.7-2,1.5-3.9,2.3-5.9c3.2-8.1,6-15.1,4.8-21.6c-1.4-6.9-7-10.7-11.7-10.7l0,0c-4.1,0-7.2,2.7-8.1,7.1
		c-1.2,6.4-10.4,18.9-13.9,23.4c-0.5,0.5-1,1.1-1.4,1.6c-2.6,3.1-5.3,6.3-29.9,6.3c-1.4,0-2.5,1.1-2.5,2.5v58.7
		c0,1.4,1.1,2.5,2.5,2.5h14.8c3.7,0,7.4,0.6,10.9,1.7l6.1,2c3.7,1.2,7.5,1.8,11.4,1.8h35.1c5.8,0,10.6-4.7,10.6-10.6
		c0-3.1-1.4-6.1-3.7-8.1c4.5-3.8,5-10.4,1.3-14.9c-0.4-0.5-0.8-0.9-1.3-1.3C238.1,213.2,239.5,210.2,239.5,207.1z M228.9,201.6
		c3.1,0,5.6,2.5,5.6,5.6c0,3.1-2.5,5.6-5.6,5.6c-1.4,0-2.5,1.1-2.5,2.5s1.1,2.5,2.5,2.5c3.1,0,5.5,2.6,5.5,5.6c0,3-2.5,5.4-5.5,5.5
		c-1.4,0-2.5,1.1-2.5,2.5s1.1,2.5,2.5,2.5c3.1,0,5.6,2.4,5.6,5.5c0,3.1-2.4,5.6-5.5,5.6c0,0-0.1,0-0.1,0h-35.1
		c-3.3,0-6.7-0.5-9.8-1.6l-6.1-2c-4-1.3-8.2-2-12.4-2h-12.3v-53.7c22.8-0.2,27.2-3.3,31.2-8.1c0.4-0.5,0.8-1,1.3-1.4
		c0.1-0.1,0.1-0.1,0.2-0.2c0.5-0.7,13.3-16.7,15-25.6c0.4-2.1,1.5-3.1,3.2-3.1l0,0c2.6,0,6,2.5,6.8,6.6c1,5-1.6,11.4-4.5,18.8
		c-1.2,3-2.4,6.1-3.6,9.4c-0.4,1.3,0.3,2.7,1.6,3.2c0.3,0.1,0.5,0.1,0.8,0.1h23.9c3.1,0,5.6,2.4,5.6,5.5c0,3.1-2.4,5.6-5.5,5.6
		c0,0-0.1,0-0.1,0c-1.4,0-2.5,1.1-2.5,2.5S227.5,201.6,228.9,201.6L228.9,201.6z"/>
	<path class="st5" d="M207.5,182.5c-0.2-1.4-1.5-2.3-2.9-2s-2.3,1.5-2,2.9c0.1,0.6,2.3,15.4-16.1,24.5c-1.2,0.6-1.7,2.1-1.1,3.4
		s2.1,1.7,3.4,1.1l0,0C210.5,201.5,207.5,182.7,207.5,182.5z"/>
	<path class="st5" d="M228.9,180.4h-15.7c-5.8,0.1-10.5,4.8-10.5,10.7c0.1,5.8,4.7,10.4,10.5,10.5h15.7c5.8,0.1,10.6-4.6,10.7-10.5
		s-4.6-10.6-10.5-10.7C229,180.4,229,180.4,228.9,180.4z M228.9,196.6h-15.7c-3.1,0-5.5-2.6-5.5-5.6c0-3,2.5-5.4,5.5-5.5h15.7
		c3.1,0,5.6,2.4,5.6,5.5c0,3.1-2.4,5.6-5.5,5.6C229,196.6,229,196.6,228.9,196.6z"/>
	<path class="st5" d="M228.9,196.6h-15.7c-5.8,0.1-10.5,4.8-10.5,10.7c0.1,5.8,4.7,10.4,10.5,10.5h15.7c5.8,0.1,10.6-4.6,10.7-10.5
		s-4.6-10.6-10.5-10.7C229,196.6,229,196.6,228.9,196.6z M228.9,212.7h-15.7c-3.1,0-5.5-2.6-5.5-5.6c0-3,2.5-5.4,5.5-5.5h15.7
		c3.1,0,5.6,2.4,5.6,5.5c0,3.1-2.4,5.6-5.5,5.6C229,212.7,229,212.7,228.9,212.7z"/>
	<path class="st5" d="M228.9,212.7h-15.7c-5.8,0.1-10.5,4.8-10.5,10.7c0.1,5.8,4.7,10.4,10.5,10.5h15.7c5.8,0.1,10.6-4.6,10.7-10.5
		s-4.6-10.6-10.5-10.7C229,212.7,229,212.7,228.9,212.7z M228.9,228.8h-15.7c-3.1,0-5.5-2.6-5.5-5.6c0-3,2.5-5.4,5.5-5.5h15.7
		c3.1,0,5.6,2.4,5.6,5.5c0,3.1-2.4,5.6-5.5,5.6C229,228.8,229,228.8,228.9,228.8z"/>
	<path class="st5" d="M228.9,228.8h-15.7c-5.8,0.1-10.5,4.8-10.5,10.7c0.1,5.8,4.7,10.4,10.5,10.5h15.7c5.8,0.1,10.6-4.6,10.7-10.5
		s-4.6-10.6-10.5-10.7C229,228.8,229,228.8,228.9,228.8z M228.9,244.9h-15.7c-3.1,0-5.5-2.6-5.5-5.6c0-3,2.5-5.4,5.5-5.5h15.7
		c3.1,0,5.6,2.4,5.6,5.5c0,3.1-2.4,5.6-5.5,5.6C229,244.9,229,244.9,228.9,244.9z"/>
	<path class="st5" d="M127.3,140.7H38.5c-1.4,0-2.5,1.1-2.5,2.5s1.1,2.5,2.5,2.5h88.8c1.4,0,2.5-1.1,2.5-2.5
		S128.7,140.7,127.3,140.7z"/>
	<path class="st5" d="M82.9,125.8H38.5c-1.4,0-2.5,1.1-2.5,2.5c0,1.4,1.1,2.5,2.5,2.5h44.4c1.4,0,2.5-1.1,2.5-2.5
		C85.4,126.9,84.3,125.8,82.9,125.8z"/>
	<path class="st5" d="M51.1,37.1H38.5c-1.4,0-2.5,1.1-2.5,2.5s1.1,2.5,2.5,2.5h12.6c1.4,0,2.5-1.1,2.5-2.5S52.5,37.1,51.1,37.1z"/>
	<path class="st5" d="M127.3,155.6H38.5c-1.4,0-2.5,1.1-2.5,2.5s1.1,2.5,2.5,2.5h88.8c1.4,0,2.5-1.1,2.5-2.5
		S128.7,155.6,127.3,155.6z"/>
	<path class="st5" d="M90.9,170.5H38.5c-1.4,0-2.5,1.1-2.5,2.5s1.1,2.5,2.5,2.5h52.4c1.4,0,2.5-1.1,2.5-2.5S92.3,170.5,90.9,170.5z"
		/>
	<path class="st5" d="M90.9,185.3H38.5c-1.4,0-2.5,1.1-2.5,2.5s1.1,2.5,2.5,2.5h52.4c1.4,0,2.5-1.1,2.5-2.5S92.3,185.3,90.9,185.3z"
		/>
	<path class="st5" d="M90.9,200.2H38.5c-1.4,0-2.5,1.1-2.5,2.5s1.1,2.5,2.5,2.5h52.4c1.4,0,2.5-1.1,2.5-2.5S92.3,200.2,90.9,200.2z"
		/>
	<path class="st5" d="M90.9,215.1H38.5c-1.4,0-2.5,1.1-2.5,2.5s1.1,2.5,2.5,2.5h52.4c1.4,0,2.5-1.1,2.5-2.5S92.3,215.1,90.9,215.1z"
		/>
	<path class="st5" d="M126.7,52H39.2c-3.4,0-6.1,2.7-6.1,6.1v52.3c0,3.4,2.7,6.1,6.1,6.1h87.6c3.4,0,6.1-2.7,6.1-6.1V58.1
		C132.9,54.8,130.1,52,126.7,52z M127.9,110.5c0,0.6-0.5,1.1-1.1,1.1H39.2c-0.6,0-1.1-0.5-1.1-1.1V58.1c0-0.6,0.5-1.1,1.1-1.1h87.6
		c0.6,0,1.1,0.5,1.1,1.1L127.9,110.5z"/>
	<path class="st5" d="M94.5,77.9l-17.9-9c-1.9-1-4.3-0.2-5.2,1.7c-0.3,0.5-0.4,1.1-0.4,1.8v17.9c0,2.2,1.7,3.9,3.9,3.9
		c0.6,0,1.2-0.1,1.8-0.4l17.9-9c1.9-1,2.7-3.3,1.7-5.2C95.8,78.9,95.2,78.3,94.5,77.9L94.5,77.9z M75.9,88.6V74.2l14.4,7.2
		L75.9,88.6z"/>
	<path class="st5" d="M130.4,101.8H35.6c-1.4,0-2.5,1.1-2.5,2.5v6.2c0,3.4,2.7,6.1,6.1,6.1h87.6c3.4,0,6.1-2.7,6.1-6.1v-6.2
		C132.9,102.9,131.7,101.8,130.4,101.8C130.4,101.8,130.4,101.8,130.4,101.8z M127.9,110.5c0,0.6-0.5,1.1-1.1,1.1H39.2
		c-0.6,0-1.1-0.5-1.1-1.1v-3.7h89.8V110.5z"/>
	<path class="st5" d="M138.7,16.9H27.2c-5.9,0-10.7,4.8-10.7,10.7v210.9c0,5.9,4.8,10.7,10.7,10.7h74.4c1.4,0,2.5-1.1,2.5-2.5v-71.4
		l30,0v2.4c0,1.4,1.1,2.5,2.5,2.5h10.3c1.4,0,2.5-1.1,2.5-2.5v-150C149.4,21.7,144.6,17,138.7,16.9z M144.4,175.2h-5.3
		c-0.1-2.7-2.3-4.8-5-4.9h-30c-2.8,0-5,2.2-5,5v69H27.2c-3.1,0-5.7-2.5-5.7-5.7V27.6c0-3.1,2.5-5.7,5.7-5.7h111.5
		c3.1,0,5.7,2.5,5.7,5.7V175.2z"/>
	<path class="st1" d="M205,113.5h-1.8v-1.8c0-1.4-1.1-2.5-2.5-2.5s-2.5,1.1-2.5,2.5v1.8h-1.8c-1.4,0-2.5,1.1-2.5,2.5
		s1.1,2.5,2.5,2.5h1.8v1.8c0,1.4,1.1,2.5,2.5,2.5s2.5-1.1,2.5-2.5v-1.8h1.8c1.4,0,2.5-1.1,2.5-2.5S206.4,113.5,205,113.5z"/>
	<path class="st3" d="M181.8,25.5c-0.1-0.3-0.2-0.6-0.4-0.9c-0.1-0.1-0.2-0.3-0.3-0.4c-1-0.9-2.5-0.9-3.5,0
		c-0.1,0.1-0.2,0.2-0.3,0.4c-0.1,0.1-0.2,0.3-0.2,0.4c-0.1,0.2-0.1,0.3-0.1,0.5c-0.1,0.3-0.1,0.7,0,1c0,0.2,0.1,0.3,0.1,0.5
		c0.1,0.1,0.1,0.3,0.2,0.4c0.1,0.1,0.2,0.3,0.3,0.4c1,1,2.5,1,3.5,0c0,0,0,0,0,0c0.1-0.1,0.2-0.2,0.3-0.4c0.1-0.1,0.2-0.3,0.2-0.4
		c0.1-0.1,0.1-0.3,0.1-0.5C181.9,26.2,181.9,25.8,181.8,25.5z"/>
	<path class="st6" d="M169.1,103.8c-0.1-0.3-0.2-0.6-0.4-0.9c-0.1-0.1-0.2-0.3-0.3-0.4c-1-0.9-2.5-0.9-3.5,0
		c-0.1,0.1-0.2,0.2-0.3,0.4c-0.1,0.1-0.2,0.3-0.2,0.4c-0.1,0.2-0.1,0.3-0.1,0.5c-0.1,0.3-0.1,0.7,0,1c0,0.2,0.1,0.3,0.1,0.5
		c0.1,0.1,0.1,0.3,0.2,0.4c0.1,0.1,0.2,0.3,0.3,0.4c1,1,2.5,1,3.5,0c0,0,0,0,0,0c0.1-0.1,0.2-0.2,0.3-0.4c0.1-0.1,0.2-0.3,0.2-0.4
		c0.1-0.1,0.1-0.3,0.1-0.5C169.2,104.4,169.2,104.1,169.1,103.8z"/>
	<path class="st7" d="M223.5,137.6c-0.1-0.3-0.2-0.6-0.4-0.9c-0.1-0.1-0.2-0.3-0.3-0.4c-1-0.9-2.5-0.9-3.5,0
		c-0.1,0.1-0.2,0.2-0.3,0.4c-0.1,0.1-0.2,0.3-0.2,0.4c-0.1,0.2-0.1,0.3-0.1,0.5c-0.1,0.3-0.1,0.7,0,1c0,0.2,0.1,0.3,0.1,0.5
		c0.1,0.1,0.1,0.3,0.2,0.4c0.1,0.1,0.2,0.3,0.3,0.4c1,1,2.5,1,3.5,0c0,0,0,0,0,0c0.1-0.1,0.2-0.2,0.3-0.4c0.1-0.1,0.2-0.3,0.2-0.4
		c0.1-0.1,0.1-0.3,0.1-0.5C223.6,138.2,223.6,137.9,223.5,137.6z"/>
	<path class="st7" d="M165.9,8.2c-4.1-0.8-7.2-4-8-8c0-0.1-0.1-0.2-0.2-0.2c-0.1,0-0.1,0.1-0.2,0.2c-0.8,4.1-4,7.2-8,8
		c-0.1,0-0.2,0.1-0.1,0.2c0,0.1,0.1,0.1,0.1,0.1c4.1,0.8,7.2,4,8,8c0,0.1,0.1,0.2,0.2,0.2c0.1,0,0.1-0.1,0.2-0.2c0.8-4.1,4-7.2,8-8
		c0.1,0,0.2-0.1,0.1-0.2C166.1,8.2,166,8.2,165.9,8.2z"/>
</g>
</svg>
